<svg width="250" height="200" viewBox="0 0 250 200" fill="none" xmlns="http://www.w3.org/2000/svg">
<path fill-rule="evenodd" clip-rule="evenodd" d="M187.5 25H196.429C203.533 25 210.346 27.6339 215.369 32.3223C220.392 37.0107 223.214 43.3696 223.214 50V58.3333H187.5V25ZM187.5 83.3333V116.667H223.214V83.3333H187.5ZM250 83.3333V150C250 163.261 244.356 175.979 234.309 185.355C224.263 194.732 210.637 200 196.429 200H53.5714C39.3634 200 25.7373 194.732 15.6907 185.355C5.64412 175.979 0 163.261 0 150V50C0 36.7392 5.64412 24.0215 15.6907 14.6447C25.7373 5.26784 39.3634 0 53.5714 0H196.429C210.637 0 224.263 5.26784 234.309 14.6447C244.356 24.0215 250 36.7392 250 50V83.3333ZM223.214 141.667H187.5V175H196.429C203.533 175 210.346 172.366 215.369 167.678C220.392 162.989 223.214 156.63 223.214 150V141.667ZM160.714 25H89.2857V175H160.714V25ZM62.5 175V141.667H26.7857V150C26.7857 156.63 29.6078 162.989 34.6311 167.678C39.6544 172.366 46.4674 175 53.5714 175H62.5ZM62.5 83.3333V116.667H26.7857V83.3333H62.5ZM62.5 58.3333H26.7857V50C26.7857 43.3696 29.6078 37.0107 34.6311 32.3223C39.6544 27.6339 46.4674 25 53.5714 25H62.5V58.3333Z" fill="#202229"/>
</svg>
