<svg width="261" height="61" viewBox="0 0 261 61" fill="none" xmlns="http://www.w3.org/2000/svg">
<path d="M75.2254 17.476C76.9774 17.476 78.5134 17.728 79.8334 18.232C81.1774 18.712 81.8494 19.372 81.8494 20.212C81.8494 21.052 81.5254 22.096 80.8774 23.344C80.2534 24.568 79.7254 25.18 79.2934 25.18C79.1734 25.18 79.0294 25.12 78.8614 25C78.7174 24.856 78.3574 24.712 77.7814 24.568C77.2294 24.4 76.7494 24.316 76.3414 24.316C74.9494 24.316 73.8214 24.808 72.9574 25.792C72.1174 26.776 71.6974 28.288 71.6974 30.328C71.6974 32.344 72.1294 33.844 72.9934 34.828C73.8814 35.812 74.9974 36.304 76.3414 36.304C76.8934 36.304 77.5054 36.232 78.1774 36.088C78.8734 35.92 79.3654 35.692 79.6534 35.404C79.7014 35.356 79.7974 35.332 79.9414 35.332C80.0854 35.332 80.3494 35.608 80.7334 36.16C81.1414 36.688 81.5134 37.396 81.8494 38.284C82.1854 39.148 82.3534 39.82 82.3534 40.3C82.3534 41.236 81.6334 41.98 80.1934 42.532C78.7534 43.084 77.0494 43.36 75.0814 43.36C71.9134 43.36 69.3094 42.244 67.2694 40.012C65.2294 37.78 64.2094 34.636 64.2094 30.58C64.2094 26.5 65.2534 23.296 67.3414 20.968C69.4534 18.64 72.0814 17.476 75.2254 17.476ZM104.693 42.388C104.693 42.796 103.481 43 101.057 43C98.6331 43 97.4211 42.796 97.4211 42.388V34.108H92.3811V42.388C92.3811 42.796 91.1691 43 88.7451 43C86.3211 43 85.1091 42.796 85.1091 42.388V18.52C85.1091 18.016 86.3211 17.764 88.7451 17.764C91.1691 17.764 92.3811 18.016 92.3811 18.52V26.98H97.4211V18.592C97.4211 18.256 98.0211 18.016 99.2211 17.872C99.8451 17.824 100.457 17.8 101.057 17.8L102.893 17.872C104.093 18.016 104.693 18.256 104.693 18.592V42.388ZM110.653 36.808V23.992H108.097C107.689 23.992 107.401 23.476 107.233 22.444C107.161 21.94 107.125 21.424 107.125 20.896C107.125 20.368 107.161 19.852 107.233 19.348C107.401 18.316 107.689 17.8 108.097 17.8H120.193C120.601 17.8 120.877 18.316 121.021 19.348C121.117 19.852 121.165 20.368 121.165 20.896C121.165 21.424 121.117 21.94 121.021 22.444C120.877 23.476 120.601 23.992 120.193 23.992H117.781V36.808H120.301C120.709 36.808 120.997 37.324 121.165 38.356C121.261 38.86 121.309 39.376 121.309 39.904C121.309 40.432 121.261 40.948 121.165 41.452C120.997 42.484 120.709 43 120.301 43H108.169C107.761 43 107.485 42.484 107.341 41.452C107.245 40.948 107.197 40.432 107.197 39.904C107.197 39.376 107.245 38.86 107.341 38.356C107.485 37.324 107.761 36.808 108.169 36.808H110.653ZM123.351 40.876V18.484C123.351 17.98 124.563 17.728 126.987 17.728C129.435 17.728 130.659 17.98 130.659 18.484V36.124H136.203C136.635 36.124 136.935 36.688 137.103 37.816C137.175 38.368 137.211 38.932 137.211 39.508C137.211 40.084 137.175 40.672 137.103 41.272C136.911 42.424 136.599 43 136.167 43H125.079C124.551 43 124.131 42.784 123.819 42.352C123.507 41.92 123.351 41.428 123.351 40.876ZM138.995 40.876V18.484C138.995 17.98 140.207 17.728 142.631 17.728C145.079 17.728 146.303 17.98 146.303 18.484V36.124H151.847C152.279 36.124 152.579 36.688 152.747 37.816C152.819 38.368 152.855 38.932 152.855 39.508C152.855 40.084 152.819 40.672 152.747 41.272C152.555 42.424 152.243 43 151.811 43H140.723C140.195 43 139.775 42.784 139.463 42.352C139.151 41.92 138.995 41.428 138.995 40.876ZM175.249 17.8C175.657 17.8 175.861 18.868 175.861 21.004C175.861 23.116 175.657 24.172 175.249 24.172H168.661V28.276H173.053C173.461 28.276 173.665 29.212 173.665 31.084C173.665 32.932 173.473 33.856 173.089 33.856H168.661V42.532C168.661 42.868 168.205 43.084 167.293 43.18C166.405 43.3 165.661 43.36 165.061 43.36L163.369 43.288C162.193 43.144 161.605 42.904 161.605 42.568V18.736C161.605 18.352 161.677 18.1 161.821 17.98C161.989 17.86 162.229 17.8 162.541 17.8H175.249ZM181.141 36.808V23.992H178.585C178.177 23.992 177.889 23.476 177.721 22.444C177.649 21.94 177.613 21.424 177.613 20.896C177.613 20.368 177.649 19.852 177.721 19.348C177.889 18.316 178.177 17.8 178.585 17.8H190.681C191.089 17.8 191.365 18.316 191.509 19.348C191.605 19.852 191.653 20.368 191.653 20.896C191.653 21.424 191.605 21.94 191.509 22.444C191.365 23.476 191.089 23.992 190.681 23.992H188.269V36.808H190.789C191.197 36.808 191.485 37.324 191.653 38.356C191.749 38.86 191.797 39.376 191.797 39.904C191.797 40.432 191.749 40.948 191.653 41.452C191.485 42.484 191.197 43 190.789 43H178.657C178.249 43 177.973 42.484 177.829 41.452C177.733 40.948 177.685 40.432 177.685 39.904C177.685 39.376 177.733 38.86 177.829 38.356C177.973 37.324 178.249 36.808 178.657 36.808H181.141ZM193.839 40.876V18.484C193.839 17.98 195.051 17.728 197.475 17.728C199.923 17.728 201.147 17.98 201.147 18.484V36.124H206.691C207.123 36.124 207.423 36.688 207.591 37.816C207.663 38.368 207.699 38.932 207.699 39.508C207.699 40.084 207.663 40.672 207.591 41.272C207.399 42.424 207.087 43 206.655 43H195.567C195.039 43 194.619 42.784 194.307 42.352C193.995 41.92 193.839 41.428 193.839 40.876ZM235.043 43.036C232.907 43.036 231.839 42.796 231.839 42.316L231.083 27.88L226.691 42.496C226.595 42.784 225.779 42.928 224.243 42.928C222.707 42.928 221.915 42.796 221.867 42.532L217.331 27.736L216.827 42.1C216.803 42.46 216.347 42.712 215.459 42.856C214.571 42.976 213.827 43.036 213.227 43.036C212.651 43.036 212.087 43 211.535 42.928C210.383 42.76 209.819 42.46 209.843 42.028L210.671 18.628C210.671 18.052 212.135 17.764 215.063 17.764C215.927 17.764 216.983 17.836 218.231 17.98C219.479 18.1 220.175 18.352 220.319 18.736L224.351 30.076L227.879 18.7C228.095 18.076 229.751 17.764 232.847 17.764C233.735 17.764 234.791 17.836 236.015 17.98C237.263 18.1 237.887 18.328 237.887 18.664L238.931 42.28C238.931 42.544 238.463 42.736 237.527 42.856C236.591 42.976 235.763 43.036 235.043 43.036ZM243.44 34.216C243.896 34.576 244.676 35.068 245.78 35.692C246.908 36.316 247.976 36.628 248.984 36.628C250.016 36.628 250.532 36.232 250.532 35.44C250.532 35.08 250.388 34.768 250.1 34.504C249.812 34.216 249.284 33.892 248.516 33.532C247.748 33.172 247.172 32.896 246.788 32.704C246.404 32.488 245.888 32.152 245.24 31.696C244.616 31.216 244.136 30.724 243.8 30.22C242.84 28.852 242.36 27.112 242.36 25C242.36 22.888 243.14 21.112 244.7 19.672C246.284 18.208 248.348 17.476 250.892 17.476C252.62 17.476 254.216 17.668 255.68 18.052C257.144 18.412 257.9 18.892 257.948 19.492C257.948 19.564 257.948 19.636 257.948 19.708C257.948 20.548 257.684 21.616 257.156 22.912C256.628 24.184 256.256 24.892 256.04 25.036C254.504 24.244 253.124 23.848 251.9 23.848C250.7 23.848 250.1 24.28 250.1 25.144C250.1 25.672 250.544 26.14 251.432 26.548C251.624 26.644 251.9 26.776 252.26 26.944C252.62 27.112 253.028 27.316 253.484 27.556C253.964 27.772 254.468 28.06 254.996 28.42C255.548 28.756 256.136 29.212 256.76 29.788C258.032 30.988 258.668 32.572 258.668 34.54C258.668 37.108 257.96 39.208 256.544 40.84C255.128 42.472 252.944 43.312 249.992 43.36C248.552 43.36 247.244 43.24 246.068 43C244.916 42.76 243.908 42.292 243.044 41.596C242.18 40.9 241.748 40.06 241.748 39.076C241.748 38.092 241.928 37.12 242.288 36.16C242.648 35.176 243.032 34.528 243.44 34.216Z" fill="#007AFF"/>
<path d="M28 33.25V49.75M28 33.25V5.75M28 33.25C28 29.8428 25.2014 26.375 21.75 26.375C18.2986 26.375 15.5 29.8428 15.5 33.25C15.5 29.8428 12.7014 26.375 9.25 26.375C5.79861 26.375 3 29.8428 3 33.25V30.423C3 16.7968 14.1931 5.75 28 5.75M28 33.25C28 29.8428 30.7986 26.375 34.25 26.375C37.7014 26.375 40.5 29.8428 40.5 33.25C40.5 29.8428 43.2986 26.375 46.75 26.375C50.2014 26.375 53 29.8428 53 33.25V30.423C53 16.7968 41.8069 5.75 28 5.75M28 5.75V3M5.77778 52.5H41.8889L50.2222 44.25M15.5 52.5V58M39.1111 52.5V58" stroke="#007AFF" stroke-width="5" stroke-linecap="round" stroke-linejoin="round"/>
<path d="M15.5 33.25C15.5 33.25 13.4166 25.6875 16.8889 18.125C20.3611 10.5625 28 5.75 28 5.75M28 5.75C28 5.75 34.25 9.1875 37.7222 18.125C41.1944 27.0625 40.5 33.25 40.5 33.25M28 5.75V31.875" stroke="#007AFF" stroke-width="5" stroke-linecap="round" stroke-linejoin="round"/>
<path d="M46.75 26.375C43.2986 26.375 40.5 29.8428 40.5 33.25C40.5 29.8428 37.7014 26.375 34.25 26.375C30.7986 26.375 28 29.8428 28 33.25C28 29.8428 25.2014 26.375 21.75 26.375C18.2986 26.375 15.5 29.8428 15.5 33.25C15.5 29.8428 12.7014 26.375 9.25 26.375M16.5181 8.5C19.9583 6.74275 23.8611 5.75 28 5.75C32.1389 5.75 36.0417 6.74275 39.4806 8.5" stroke="#007AFF" stroke-width="5" stroke-linecap="round" stroke-linejoin="round"/>
</svg>
