<svg width="36" height="50" viewBox="0 0 36 50" fill="none" xmlns="http://www.w3.org/2000/svg">
<path d="M36 25C36.0013 25.6529 35.8589 26.2951 35.5865 26.8642C35.3141 27.4333 34.921 27.9098 34.4454 28.2474L4.97454 49.4339C4.47768 49.7915 3.90859 49.9867 3.32607 49.9993C2.74354 50.012 2.1687 49.8417 1.66091 49.506C1.15795 49.1756 0.738974 48.6936 0.447062 48.1098C0.155151 47.5259 0.000840391 46.8612 0 46.1841V3.81592C0.000840391 3.13875 0.155151 2.47407 0.447062 1.89022C0.738974 1.30637 1.15795 0.824435 1.66091 0.493965C2.1687 0.15828 2.74354 -0.0120175 3.32607 0.000659455C3.90859 0.0133364 4.47768 0.208529 4.97454 0.566077L34.4454 21.7526C34.921 22.0902 35.3141 22.5667 35.5865 23.1358C35.8589 23.7049 36.0013 24.3471 36 25Z" fill="#E4E7FA"/>
</svg>
