<svg width="246" height="250" viewBox="0 0 246 250" fill="none" xmlns="http://www.w3.org/2000/svg">
<path fill-rule="evenodd" clip-rule="evenodd" d="M215.845 0.353871C219.554 -0.266618 223.353 -0.0693789 226.979 0.931873C230.604 1.93313 233.968 3.71437 236.838 6.15178C239.708 8.58919 242.014 11.6243 243.596 15.0461C245.178 18.4679 245.999 22.1943 246 25.9663V179.485C245.997 190.921 242.233 202.036 235.292 211.108C228.35 220.179 218.618 226.699 207.606 229.657C196.594 232.615 184.916 231.846 174.384 227.468C163.852 223.09 155.055 215.349 149.356 205.444C143.657 195.54 141.375 184.026 142.864 172.688C144.353 161.35 149.53 150.821 157.591 142.735C165.653 134.649 176.149 129.458 187.452 127.965C198.754 126.473 210.232 128.763 220.105 134.481V77.9184L90.6303 99.5694V192.473C90.6303 193.252 90.5656 194.005 90.4361 194.733C91.3656 204.72 88.976 214.736 83.6393 223.219C78.3027 231.702 70.3188 238.176 60.9317 241.632C51.5445 245.089 41.2812 245.334 31.7409 242.329C22.2005 239.324 13.9189 233.238 8.1862 225.019C2.45355 216.8 -0.40814 206.91 0.0469829 196.889C0.502106 186.869 4.24848 177.281 10.7024 169.619C17.1564 161.957 25.9554 156.652 35.7286 154.529C45.5019 152.407 55.7005 153.587 64.7354 157.886V47.6173C64.7346 41.4683 66.9084 35.5184 70.8701 30.8261C74.8317 26.1338 80.3243 23.0034 86.3706 21.9919L215.845 0.353871ZM90.6303 73.2427L220.105 51.5916V25.9663L90.6303 47.6173V73.2427Z" fill="#202229"/>
</svg>
