<svg width="100" height="100" viewBox="0 0 100 100" fill="none" xmlns="http://www.w3.org/2000/svg">
<path d="M42.1053 92.1053C42.1053 94.1991 42.937 96.2071 44.4176 97.6877C45.8981 99.1682 47.9062 100 50 100C52.0938 100 54.1019 99.1682 55.5824 97.6877C57.063 96.2071 57.8947 94.1991 57.8947 92.1053V57.8947H92.1053C94.1991 57.8947 96.2071 57.063 97.6877 55.5824C99.1682 54.1019 100 52.0938 100 50C100 47.9062 99.1682 45.8981 97.6877 44.4176C96.2071 42.937 94.1991 42.1053 92.1053 42.1053H57.8947V7.89474C57.8947 5.80092 57.063 3.79287 55.5824 2.31232C54.1019 0.831765 52.0938 0 50 0C47.9062 0 45.8981 0.831765 44.4176 2.31232C42.937 3.79287 42.1053 5.80092 42.1053 7.89474V42.1053H7.89474C5.80092 42.1053 3.79287 42.937 2.31232 44.4176C0.831765 45.8981 0 47.9062 0 50C0 52.0938 0.831765 54.1019 2.31232 55.5824C3.79287 57.063 5.80092 57.8947 7.89474 57.8947H42.1053V92.1053Z" fill="#202229"/>
</svg>
