<svg width="55" height="70" viewBox="0 0 55 70" fill="none" xmlns="http://www.w3.org/2000/svg">
<path d="M27.5157 6.5228L27.17 6.31536C23.2519 3.9557 19.8052 1.87609 16.851 0.828511C15.2224 0.208809 13.4813 -0.0684763 11.7386 0.014299C9.90406 0.152943 8.1506 0.819956 6.69429 1.93314C3.66143 4.18389 2.3519 7.49778 1.63428 11.1643C0.937618 14.7168 0.670477 19.3427 0.340476 24.9748L0.324761 25.2652C0.125713 28.6362 0 31.9708 0 34.9943C0 38.0177 0.125713 41.3576 0.324761 44.7285L0.340476 45.0137C0.670477 50.6458 0.937618 55.2718 1.63428 58.819C2.3519 62.4908 3.66143 65.7995 6.69429 68.0554C8.19238 69.1704 9.87381 69.8342 11.7386 69.9742C13.53 70.1039 15.2481 69.7305 16.851 69.16C19.8052 68.1124 23.2519 66.0328 27.17 63.6784L27.5157 63.4709C29.7471 62.1225 31.9367 60.7379 33.8905 59.3739C36.2832 57.6886 38.6156 55.9208 40.8833 54.0738L41.1452 53.8612C45.1471 50.6302 48.5414 47.8868 50.8881 45.1901C53.4443 42.234 55 39.0601 55 34.9943C55 30.9284 53.4443 27.7493 50.8829 24.7985C48.5414 22.1017 45.1471 19.3531 41.1505 16.1274L40.8886 15.9148C38.5105 13.9959 36.1219 12.16 33.8905 10.6146C31.8096 9.18291 29.6836 7.81656 27.5157 6.51762" fill="#007AFF"/>
</svg>
