<svg width="57" height="70" viewBox="0 0 57 70" fill="none" xmlns="http://www.w3.org/2000/svg">
<path d="M9.06818 0C6.66315 0 4.35662 0.956016 2.65601 2.65774C0.955395 4.35945 0 6.66748 0 9.07407V60.9259C0 65.9348 4.06255 70 9.06818 70H14.25C16.655 70 18.9616 69.044 20.6622 67.3423C22.3628 65.6405 23.3182 63.3325 23.3182 60.9259V9.07407C23.3182 6.66748 22.3628 4.35945 20.6622 2.65774C18.9616 0.956016 16.655 0 14.25 0H9.06818ZM42.75 0C40.345 0 38.0384 0.956016 36.3378 2.65774C34.6372 4.35945 33.6818 6.66748 33.6818 9.07407V60.9259C33.6818 65.9348 37.7444 70 42.75 70H47.9318C50.3368 70 52.6434 69.044 54.344 67.3423C56.0446 65.6405 57 63.3325 57 60.9259V9.07407C57 6.66748 56.0446 4.35945 54.344 2.65774C52.6434 0.956016 50.3368 0 47.9318 0H42.75Z" fill="#007AFF"/>
</svg>
