<svg width="24" height="24" viewBox="0 0 24 24" fill="none" xmlns="http://www.w3.org/2000/svg">
<mask id="mask0_128_290" style="mask-type:luminance" maskUnits="userSpaceOnUse" x="0" y="0" width="24" height="24">
<path d="M0 0H24V24H0V0Z" fill="white"/>
</mask>
<g mask="url(#mask0_128_290)">
<path fill-rule="evenodd" clip-rule="evenodd" d="M3 7.5H6L9.723 3.777C10.0939 3.40621 10.5664 3.15371 11.0808 3.05142C11.5951 2.94913 12.1283 3.00165 12.6128 3.20233C13.0973 3.40302 13.5115 3.74285 13.8029 4.17888C14.0943 4.61491 14.2499 5.12755 14.25 5.65199V18.348C14.2499 18.8724 14.0943 19.3851 13.8029 19.8211C13.5115 20.2571 13.0973 20.597 12.6128 20.7977C12.1283 20.9983 11.5951 21.0509 11.0808 20.9486C10.5664 20.8463 10.0939 20.5938 9.723 20.223L6 16.5H3C2.20435 16.5 1.44129 16.1839 0.87868 15.6213C0.316071 15.0587 0 14.2956 0 13.5V10.5C0 9.70435 0.316071 8.94128 0.87868 8.37867C1.44129 7.81607 2.20435 7.5 3 7.5ZM21.243 19.6545C20.8455 20.133 20.1285 20.1285 19.689 19.6905C19.251 19.251 19.257 18.5415 19.6425 18.0555C21.0107 16.334 21.7538 14.199 21.75 12C21.7538 9.80103 21.0107 7.66594 19.6425 5.9445C19.257 5.4585 19.251 4.749 19.689 4.3095C20.1285 3.8715 20.8455 3.8685 21.243 4.3455C23.0286 6.4962 24.0042 9.20464 24 12C24 14.91 22.965 17.577 21.243 19.6545ZM18.036 16.452C17.667 16.9515 16.947 16.947 16.5075 16.5075C16.068 16.068 16.0815 15.3615 16.4175 14.838C16.9612 13.9913 17.2502 13.0062 17.25 12C17.25 10.9545 16.944 9.9795 16.4175 9.162C16.0815 8.64 16.068 7.93199 16.5075 7.49249C16.947 7.05299 17.667 7.0485 18.0375 7.548C18.9555 8.793 19.5 10.335 19.5 12C19.5022 13.6026 18.9889 15.1635 18.036 16.452Z" fill="#007AFF"/>
</g>
</svg>
