<svg width="157" height="61" viewBox="0 0 157 61" fill="none" xmlns="http://www.w3.org/2000/svg">
<path d="M75.096 17.476C76.848 17.476 78.384 17.728 79.704 18.232C81.048 18.712 81.72 19.372 81.72 20.212C81.72 21.052 81.396 22.096 80.748 23.344C80.124 24.568 79.596 25.18 79.164 25.18C79.044 25.18 78.9 25.12 78.732 25C78.588 24.856 78.228 24.712 77.652 24.568C77.1 24.4 76.62 24.316 76.212 24.316C74.82 24.316 73.692 24.808 72.828 25.792C71.988 26.776 71.568 28.288 71.568 30.328C71.568 32.344 72 33.844 72.864 34.828C73.752 35.812 74.868 36.304 76.212 36.304C76.764 36.304 77.376 36.232 78.048 36.088C78.744 35.92 79.236 35.692 79.524 35.404C79.572 35.356 79.668 35.332 79.812 35.332C79.956 35.332 80.22 35.608 80.604 36.16C81.012 36.688 81.384 37.396 81.72 38.284C82.056 39.148 82.224 39.82 82.224 40.3C82.224 41.236 81.504 41.98 80.064 42.532C78.624 43.084 76.92 43.36 74.952 43.36C71.784 43.36 69.18 42.244 67.14 40.012C65.1 37.78 64.08 34.636 64.08 30.58C64.08 26.5 65.124 23.296 67.212 20.968C69.324 18.64 71.952 17.476 75.096 17.476ZM104.564 42.388C104.564 42.796 103.352 43 100.928 43C98.5037 43 97.2917 42.796 97.2917 42.388V34.108H92.2517V42.388C92.2517 42.796 91.0397 43 88.6157 43C86.1917 43 84.9797 42.796 84.9797 42.388V18.52C84.9797 18.016 86.1917 17.764 88.6157 17.764C91.0397 17.764 92.2517 18.016 92.2517 18.52V26.98H97.2917V18.592C97.2917 18.256 97.8917 18.016 99.0917 17.872C99.7157 17.824 100.328 17.8 100.928 17.8L102.764 17.872C103.964 18.016 104.564 18.256 104.564 18.592V42.388ZM110.524 36.808V23.992H107.968C107.56 23.992 107.272 23.476 107.104 22.444C107.032 21.94 106.996 21.424 106.996 20.896C106.996 20.368 107.032 19.852 107.104 19.348C107.272 18.316 107.56 17.8 107.968 17.8H120.064C120.472 17.8 120.748 18.316 120.892 19.348C120.988 19.852 121.036 20.368 121.036 20.896C121.036 21.424 120.988 21.94 120.892 22.444C120.748 23.476 120.472 23.992 120.064 23.992H117.652V36.808H120.172C120.58 36.808 120.868 37.324 121.036 38.356C121.132 38.86 121.18 39.376 121.18 39.904C121.18 40.432 121.132 40.948 121.036 41.452C120.868 42.484 120.58 43 120.172 43H108.04C107.632 43 107.356 42.484 107.212 41.452C107.116 40.948 107.068 40.432 107.068 39.904C107.068 39.376 107.116 38.86 107.212 38.356C107.356 37.324 107.632 36.808 108.04 36.808H110.524ZM123.221 40.876V18.484C123.221 17.98 124.433 17.728 126.857 17.728C129.305 17.728 130.529 17.98 130.529 18.484V36.124H136.073C136.505 36.124 136.805 36.688 136.973 37.816C137.045 38.368 137.081 38.932 137.081 39.508C137.081 40.084 137.045 40.672 136.973 41.272C136.781 42.424 136.469 43 136.037 43H124.949C124.421 43 124.001 42.784 123.689 42.352C123.377 41.92 123.221 41.428 123.221 40.876ZM138.866 40.876V18.484C138.866 17.98 140.078 17.728 142.502 17.728C144.95 17.728 146.174 17.98 146.174 18.484V36.124H151.718C152.15 36.124 152.45 36.688 152.618 37.816C152.69 38.368 152.726 38.932 152.726 39.508C152.726 40.084 152.69 40.672 152.618 41.272C152.426 42.424 152.114 43 151.682 43H140.594C140.066 43 139.646 42.784 139.334 42.352C139.022 41.92 138.866 41.428 138.866 40.876Z" fill="#007AFF"/>
<path d="M28 33.25V49.75M28 33.25V5.75M28 33.25C28 29.8428 25.2014 26.375 21.75 26.375C18.2986 26.375 15.5 29.8428 15.5 33.25C15.5 29.8428 12.7014 26.375 9.25 26.375C5.79861 26.375 3 29.8428 3 33.25V30.423C3 16.7968 14.1931 5.75 28 5.75M28 33.25C28 29.8428 30.7986 26.375 34.25 26.375C37.7014 26.375 40.5 29.8428 40.5 33.25C40.5 29.8428 43.2986 26.375 46.75 26.375C50.2014 26.375 53 29.8428 53 33.25V30.423C53 16.7968 41.8069 5.75 28 5.75M28 5.75V3M5.77778 52.5H41.8889L50.2222 44.25M15.5 52.5V58M39.1111 52.5V58" stroke="#007AFF" stroke-width="5" stroke-linecap="round" stroke-linejoin="round"/>
<path d="M15.5002 33.25C15.5002 33.25 13.4169 25.6875 16.8891 18.125C20.3613 10.5625 28.0002 5.75 28.0002 5.75M28.0002 5.75C28.0002 5.75 34.2502 9.1875 37.7224 18.125C41.1946 27.0625 40.5002 33.25 40.5002 33.25M28.0002 5.75V31.875" stroke="#007AFF" stroke-width="5" stroke-linecap="round" stroke-linejoin="round"/>
<path d="M46.75 26.375C43.2986 26.375 40.5 29.8428 40.5 33.25C40.5 29.8428 37.7014 26.375 34.25 26.375C30.7986 26.375 28 29.8428 28 33.25C28 29.8428 25.2014 26.375 21.75 26.375C18.2986 26.375 15.5 29.8428 15.5 33.25C15.5 29.8428 12.7014 26.375 9.25 26.375M16.5181 8.5C19.9583 6.74275 23.8611 5.75 28 5.75C32.1389 5.75 36.0417 6.74275 39.4806 8.5" stroke="#007AFF" stroke-width="5" stroke-linecap="round" stroke-linejoin="round"/>
</svg>
