<svg width="271" height="61" viewBox="0 0 271 61" fill="none" xmlns="http://www.w3.org/2000/svg">
<path d="M76.096 17.3394C77.848 17.3394 79.384 17.5914 80.704 18.0954C82.048 18.5754 82.72 19.2354 82.72 20.0754C82.72 20.9154 82.396 21.9594 81.748 23.2074C81.124 24.4314 80.596 25.0434 80.164 25.0434C80.044 25.0434 79.9 24.9834 79.732 24.8634C79.588 24.7194 79.228 24.5754 78.652 24.4314C78.1 24.2634 77.62 24.1794 77.212 24.1794C75.82 24.1794 74.692 24.6714 73.828 25.6554C72.988 26.6394 72.568 28.1514 72.568 30.1914C72.568 32.2074 73 33.7074 73.864 34.6914C74.752 35.6754 75.868 36.1674 77.212 36.1674C77.764 36.1674 78.376 36.0954 79.048 35.9514C79.744 35.7834 80.236 35.5554 80.524 35.2674C80.572 35.2194 80.668 35.1954 80.812 35.1954C80.956 35.1954 81.22 35.4714 81.604 36.0234C82.012 36.5514 82.384 37.2594 82.72 38.1474C83.056 39.0114 83.224 39.6834 83.224 40.1634C83.224 41.0994 82.504 41.8434 81.064 42.3954C79.624 42.9474 77.92 43.2234 75.952 43.2234C72.784 43.2234 70.18 42.1074 68.14 39.8754C66.1 37.6434 65.08 34.4994 65.08 30.4434C65.08 26.3634 66.124 23.1594 68.212 20.8314C70.324 18.5034 72.952 17.3394 76.096 17.3394ZM105.564 42.2514C105.564 42.6594 104.352 42.8634 101.928 42.8634C99.5037 42.8634 98.2917 42.6594 98.2917 42.2514V33.9714H93.2517V42.2514C93.2517 42.6594 92.0397 42.8634 89.6157 42.8634C87.1917 42.8634 85.9797 42.6594 85.9797 42.2514V18.3834C85.9797 17.8794 87.1917 17.6274 89.6157 17.6274C92.0397 17.6274 93.2517 17.8794 93.2517 18.3834V26.8434H98.2917V18.4554C98.2917 18.1194 98.8917 17.8794 100.092 17.7354C100.716 17.6874 101.328 17.6634 101.928 17.6634L103.764 17.7354C104.964 17.8794 105.564 18.1194 105.564 18.4554V42.2514ZM111.524 36.6714V23.8554H108.968C108.56 23.8554 108.272 23.3394 108.104 22.3074C108.032 21.8034 107.996 21.2874 107.996 20.7594C107.996 20.2314 108.032 19.7154 108.104 19.2114C108.272 18.1794 108.56 17.6634 108.968 17.6634H121.064C121.472 17.6634 121.748 18.1794 121.892 19.2114C121.988 19.7154 122.036 20.2314 122.036 20.7594C122.036 21.2874 121.988 21.8034 121.892 22.3074C121.748 23.3394 121.472 23.8554 121.064 23.8554H118.652V36.6714H121.172C121.58 36.6714 121.868 37.1874 122.036 38.2194C122.132 38.7234 122.18 39.2394 122.18 39.7674C122.18 40.2954 122.132 40.8114 122.036 41.3154C121.868 42.3474 121.58 42.8634 121.172 42.8634H109.04C108.632 42.8634 108.356 42.3474 108.212 41.3154C108.116 40.8114 108.068 40.2954 108.068 39.7674C108.068 39.2394 108.116 38.7234 108.212 38.2194C108.356 37.1874 108.632 36.6714 109.04 36.6714H111.524ZM124.221 40.7394V18.3474C124.221 17.8434 125.433 17.5914 127.857 17.5914C130.305 17.5914 131.529 17.8434 131.529 18.3474V35.9874H137.073C137.505 35.9874 137.805 36.5514 137.973 37.6794C138.045 38.2314 138.081 38.7954 138.081 39.3714C138.081 39.9474 138.045 40.5354 137.973 41.1354C137.781 42.2874 137.469 42.8634 137.037 42.8634H125.949C125.421 42.8634 125.001 42.6474 124.689 42.2154C124.377 41.7834 124.221 41.2914 124.221 40.7394ZM139.866 40.7394V18.3474C139.866 17.8434 141.078 17.5914 143.502 17.5914C145.95 17.5914 147.174 17.8434 147.174 18.3474V35.9874H152.718C153.15 35.9874 153.45 36.5514 153.618 37.6794C153.69 38.2314 153.726 38.7954 153.726 39.3714C153.726 39.9474 153.69 40.5354 153.618 41.1354C153.426 42.2874 153.114 42.8634 152.682 42.8634H141.594C141.066 42.8634 140.646 42.6474 140.334 42.2154C140.022 41.7834 139.866 41.2914 139.866 40.7394ZM187.855 42.8994C185.719 42.8994 184.651 42.6594 184.651 42.1794L183.895 27.7434L179.503 42.3594C179.407 42.6474 178.591 42.7914 177.055 42.7914C175.519 42.7914 174.727 42.6594 174.679 42.3954L170.143 27.5994L169.639 41.9634C169.615 42.3234 169.159 42.5754 168.271 42.7194C167.383 42.8394 166.639 42.8994 166.039 42.8994C165.463 42.8994 164.899 42.8634 164.347 42.7914C163.195 42.6234 162.631 42.3234 162.655 41.8914L163.483 18.4914C163.483 17.9154 164.947 17.6274 167.875 17.6274C168.739 17.6274 169.795 17.6994 171.043 17.8434C172.291 17.9634 172.987 18.2154 173.131 18.5994L177.163 29.9394L180.691 18.5634C180.907 17.9394 182.563 17.6274 185.659 17.6274C186.547 17.6274 187.603 17.6994 188.827 17.8434C190.075 17.9634 190.699 18.1914 190.699 18.5274L191.743 42.1434C191.743 42.4074 191.275 42.5994 190.339 42.7194C189.403 42.8394 188.575 42.8994 187.855 42.8994ZM207.088 18.3834C207.088 17.9034 208.384 17.6634 210.976 17.6634C213.592 17.6634 214.9 17.9034 214.9 18.3834V34.9074C214.9 37.3554 214.024 39.3594 212.272 40.9194C210.52 42.4554 208.096 43.2234 205 43.2234C201.928 43.2234 199.42 42.4314 197.476 40.8474C195.556 39.2394 194.596 37.0794 194.596 34.3674V18.4194C194.596 17.9394 195.892 17.6994 198.484 17.6994C201.1 17.6994 202.408 17.9394 202.408 18.4194V34.6554C202.408 35.1354 202.66 35.5194 203.164 35.8074C203.692 36.0954 204.244 36.2394 204.82 36.2394C205.396 36.2394 205.912 36.1074 206.368 35.8434C206.848 35.5794 207.088 35.1834 207.088 34.6554V18.3834ZM218.857 34.0794C219.313 34.4394 220.093 34.9314 221.197 35.5554C222.325 36.1794 223.393 36.4914 224.401 36.4914C225.433 36.4914 225.949 36.0954 225.949 35.3034C225.949 34.9434 225.805 34.6314 225.517 34.3674C225.229 34.0794 224.701 33.7554 223.933 33.3954C223.165 33.0354 222.589 32.7594 222.205 32.5674C221.821 32.3514 221.305 32.0154 220.657 31.5594C220.033 31.0794 219.553 30.5874 219.217 30.0834C218.257 28.7154 217.777 26.9754 217.777 24.8634C217.777 22.7514 218.557 20.9754 220.117 19.5354C221.701 18.0714 223.765 17.3394 226.309 17.3394C228.037 17.3394 229.633 17.5314 231.097 17.9154C232.561 18.2754 233.317 18.7554 233.365 19.3554C233.365 19.4274 233.365 19.4994 233.365 19.5714C233.365 20.4114 233.101 21.4794 232.573 22.7754C232.045 24.0474 231.673 24.7554 231.457 24.8994C229.921 24.1074 228.541 23.7114 227.317 23.7114C226.117 23.7114 225.517 24.1434 225.517 25.0074C225.517 25.5354 225.961 26.0034 226.849 26.4114C227.041 26.5074 227.317 26.6394 227.677 26.8074C228.037 26.9754 228.445 27.1794 228.901 27.4194C229.381 27.6354 229.885 27.9234 230.413 28.2834C230.965 28.6194 231.553 29.0754 232.177 29.6514C233.449 30.8514 234.085 32.4354 234.085 34.4034C234.085 36.9714 233.377 39.0714 231.961 40.7034C230.545 42.3354 228.361 43.1754 225.409 43.2234C223.969 43.2234 222.661 43.1034 221.485 42.8634C220.333 42.6234 219.325 42.1554 218.461 41.4594C217.597 40.7634 217.165 39.9234 217.165 38.9394C217.165 37.9554 217.345 36.9834 217.705 36.0234C218.065 35.0394 218.449 34.3914 218.857 34.0794ZM239.422 36.6714V23.8554H236.866C236.458 23.8554 236.17 23.3394 236.002 22.3074C235.93 21.8034 235.894 21.2874 235.894 20.7594C235.894 20.2314 235.93 19.7154 236.002 19.2114C236.17 18.1794 236.458 17.6634 236.866 17.6634H248.962C249.37 17.6634 249.646 18.1794 249.79 19.2114C249.886 19.7154 249.934 20.2314 249.934 20.7594C249.934 21.2874 249.886 21.8034 249.79 22.3074C249.646 23.3394 249.37 23.8554 248.962 23.8554H246.55V36.6714H249.07C249.478 36.6714 249.766 37.1874 249.934 38.2194C250.03 38.7234 250.078 39.2394 250.078 39.7674C250.078 40.2954 250.03 40.8114 249.934 41.3154C249.766 42.3474 249.478 42.8634 249.07 42.8634H236.938C236.53 42.8634 236.254 42.3474 236.11 41.3154C236.014 40.8114 235.966 40.2954 235.966 39.7674C235.966 39.2394 236.014 38.7234 236.11 38.2194C236.254 37.1874 236.53 36.6714 236.938 36.6714H239.422ZM262.776 17.3394C264.528 17.3394 266.064 17.5914 267.384 18.0954C268.728 18.5754 269.4 19.2354 269.4 20.0754C269.4 20.9154 269.076 21.9594 268.428 23.2074C267.804 24.4314 267.276 25.0434 266.844 25.0434C266.724 25.0434 266.58 24.9834 266.412 24.8634C266.268 24.7194 265.908 24.5754 265.332 24.4314C264.78 24.2634 264.3 24.1794 263.892 24.1794C262.5 24.1794 261.372 24.6714 260.508 25.6554C259.668 26.6394 259.248 28.1514 259.248 30.1914C259.248 32.2074 259.68 33.7074 260.544 34.6914C261.432 35.6754 262.548 36.1674 263.892 36.1674C264.444 36.1674 265.056 36.0954 265.728 35.9514C266.424 35.7834 266.916 35.5554 267.204 35.2674C267.252 35.2194 267.348 35.1954 267.492 35.1954C267.636 35.1954 267.9 35.4714 268.284 36.0234C268.692 36.5514 269.064 37.2594 269.4 38.1474C269.736 39.0114 269.904 39.6834 269.904 40.1634C269.904 41.0994 269.184 41.8434 267.744 42.3954C266.304 42.9474 264.6 43.2234 262.632 43.2234C259.464 43.2234 256.86 42.1074 254.82 39.8754C252.78 37.6434 251.76 34.4994 251.76 30.4434C251.76 26.3634 252.804 23.1594 254.892 20.8314C257.004 18.5034 259.632 17.3394 262.776 17.3394Z" fill="#007AFF"/>
<path d="M28 33.25V49.75M28 33.25V5.75M28 33.25C28 29.8428 25.2014 26.375 21.75 26.375C18.2986 26.375 15.5 29.8428 15.5 33.25C15.5 29.8428 12.7014 26.375 9.25 26.375C5.79861 26.375 3 29.8428 3 33.25V30.423C3 16.7968 14.1931 5.75 28 5.75M28 33.25C28 29.8428 30.7986 26.375 34.25 26.375C37.7014 26.375 40.5 29.8428 40.5 33.25C40.5 29.8428 43.2986 26.375 46.75 26.375C50.2014 26.375 53 29.8428 53 33.25V30.423C53 16.7968 41.8069 5.75 28 5.75M28 5.75V3M5.77778 52.5H41.8889L50.2222 44.25M15.5 52.5V58M39.1111 52.5V58" stroke="#007AFF" stroke-width="5" stroke-linecap="round" stroke-linejoin="round"/>
<path d="M15.4997 33.2499C15.4997 33.2499 13.4164 25.6874 16.8886 18.1249C20.3608 10.5624 27.9997 5.74993 27.9997 5.74993M27.9997 5.74993C27.9997 5.74993 34.2497 9.18743 37.7219 18.1249C41.1942 27.0624 40.4997 33.2499 40.4997 33.2499M27.9997 5.74993V31.8749" stroke="#007AFF" stroke-width="5" stroke-linecap="round" stroke-linejoin="round"/>
<path d="M46.75 26.3749C43.2986 26.3749 40.5 29.8427 40.5 33.2499C40.5 29.8427 37.7014 26.3749 34.25 26.3749C30.7986 26.3749 28 29.8427 28 33.2499C28 29.8427 25.2014 26.3749 21.75 26.3749C18.2986 26.3749 15.5 29.8427 15.5 33.2499C15.5 29.8427 12.7014 26.3749 9.25 26.3749M16.5181 8.49993C19.9583 6.74268 23.8611 5.74993 28 5.74993C32.1389 5.74993 36.0417 6.74268 39.4806 8.49993" stroke="#007AFF" stroke-width="5" stroke-linecap="round" stroke-linejoin="round"/>
</svg>
