<svg width="21" height="20" viewBox="0 0 21 20" fill="none" xmlns="http://www.w3.org/2000/svg">
<path d="M18.6459 20L11.6309 13C11.0741 13.4444 10.4338 13.7963 9.71006 14.0556C8.98628 14.3148 8.2161 14.4444 7.39953 14.4444C5.37666 14.4444 3.66483 13.7452 2.26404 12.3467C0.863252 10.9481 0.162486 9.24 0.161744 7.22222C0.161001 5.20444 0.861768 3.4963 2.26404 2.09778C3.66632 0.699259 5.37815 0 7.39953 0C9.42092 0 11.1331 0.699259 12.5361 2.09778C13.9392 3.4963 14.6395 5.20444 14.6373 7.22222C14.6373 8.03704 14.5074 8.80556 14.2476 9.52778C13.9878 10.25 13.6352 10.8889 13.1898 11.4444L20.2048 18.4444L18.6459 20ZM7.39953 12.2222C8.79141 12.2222 9.9747 11.7363 10.9494 10.7644C11.9241 9.79259 12.4111 8.61185 12.4103 7.22222C12.4096 5.83259 11.9226 4.65222 10.9494 3.68111C9.97618 2.71 8.7929 2.2237 7.39953 2.22222C6.00616 2.22074 4.82325 2.70704 3.85079 3.68111C2.87833 4.65519 2.39098 5.83556 2.38876 7.22222C2.38653 8.60889 2.87387 9.78963 3.85079 10.7644C4.8277 11.7393 6.01062 12.2252 7.39953 12.2222Z" fill="white" fill-opacity="0.6"/>
</svg>
